<?xml version="1.0" encoding="utf-8" standalone="no"?>
<!DOCTYPE svg PUBLIC "-//W3C//DTD SVG 1.1//EN"
  "http://www.w3.org/Graphics/SVG/1.1/DTD/svg11.dtd">
<svg xmlns:xlink="http://www.w3.org/1999/xlink" width="431.6862pt" height="258.232031pt" viewBox="0 0 431.6862 258.232031" xmlns="http://www.w3.org/2000/svg" version="1.1">
 <metadata>
  <rdf:RDF xmlns:dc="http://purl.org/dc/elements/1.1/" xmlns:cc="http://creativecommons.org/ns#" xmlns:rdf="http://www.w3.org/1999/02/22-rdf-syntax-ns#">
   <cc:Work>
    <dc:type rdf:resource="http://purl.org/dc/dcmitype/StillImage"/>
    <dc:date>2026-05-19T00:19:04.192741</dc:date>
    <dc:format>image/svg+xml</dc:format>
    <dc:creator>
     <cc:Agent>
      <dc:title>Matplotlib v3.10.9, https://matplotlib.org/</dc:title>
     </cc:Agent>
    </dc:creator>
   </cc:Work>
  </rdf:RDF>
 </metadata>
 <defs>
  <style type="text/css">*{stroke-linejoin: round; stroke-linecap: butt}</style>
 </defs>
 <g id="figure_1">
  <g id="patch_1">
   <path d="M 0 258.232031 
L 431.6862 258.232031 
L 431.6862 0 
L 0 0 
L 0 258.232031 
z
" style="fill: none; opacity: 0"/>
  </g>
  <g id="axes_1">
   <g id="patch_2">
    <path d="M 49.919688 222.3 
L 415.728778 222.3 
L 415.728778 7.2 
L 49.919688 7.2 
L 49.919688 222.3 
z
" style="fill: none"/>
   </g>
   <g id="matplotlib.axis_1">
    <g id="xtick_1">
     <g id="line2d_1">
      <defs>
       <path id="mccf8a01b8a" d="M 0 0 
L 0 3 
" style="stroke: #4a5360; stroke-width: 0.8"/>
      </defs>
      <g>
       <use xlink:href="#mccf8a01b8a" x="83.175059" y="222.3" style="fill: #4a5360; stroke: #4a5360; stroke-width: 0.8"/>
      </g>
     </g>
     <g id="text_1">
      <!-- 0.00 -->
      <g style="fill: #4a5360" transform="translate(74.417638 235.256094) scale(0.09 -0.09)">
       <defs>
        <path id="Helvetica-30" d="M 1731 4475 
Q 2600 4475 2988 3759 
Q 3288 3206 3288 2244 
Q 3288 1331 3016 734 
Q 2622 -122 1728 -122 
Q 922 -122 528 578 
Q 200 1163 200 2147 
Q 200 2909 397 3456 
Q 766 4475 1731 4475 
z
M 1725 391 
Q 2163 391 2422 778 
Q 2681 1166 2681 2222 
Q 2681 2984 2493 3476 
Q 2306 3969 1766 3969 
Q 1269 3969 1039 3501 
Q 809 3034 809 2125 
Q 809 1441 956 1025 
Q 1181 391 1725 391 
z
" transform="scale(0.015625)"/>
        <path id="Helvetica-2e" d="M 547 681 
L 1200 681 
L 1200 0 
L 547 0 
L 547 681 
z
" transform="scale(0.015625)"/>
       </defs>
       <use xlink:href="#Helvetica-30"/>
       <use xlink:href="#Helvetica-2e" transform="translate(55.615234 0)"/>
       <use xlink:href="#Helvetica-30" transform="translate(83.398438 0)"/>
       <use xlink:href="#Helvetica-30" transform="translate(139.013672 0)"/>
      </g>
     </g>
    </g>
    <g id="xtick_2">
     <g id="line2d_2">
      <g>
       <use xlink:href="#mccf8a01b8a" x="124.744274" y="222.3" style="fill: #4a5360; stroke: #4a5360; stroke-width: 0.8"/>
      </g>
     </g>
     <g id="text_2">
      <!-- 0.25 -->
      <g style="fill: #4a5360" transform="translate(115.986852 235.256094) scale(0.09 -0.09)">
       <defs>
        <path id="Helvetica-32" d="M 200 0 
Q 231 578 439 1006 
Q 647 1434 1250 1784 
L 1850 2131 
Q 2253 2366 2416 2531 
Q 2672 2791 2672 3125 
Q 2672 3516 2437 3745 
Q 2203 3975 1813 3975 
Q 1234 3975 1013 3538 
Q 894 3303 881 2888 
L 309 2888 
Q 319 3472 525 3841 
Q 891 4491 1816 4491 
Q 2584 4491 2939 4075 
Q 3294 3659 3294 3150 
Q 3294 2613 2916 2231 
Q 2697 2009 2131 1694 
L 1703 1456 
Q 1397 1288 1222 1134 
Q 909 863 828 531 
L 3272 531 
L 3272 0 
L 200 0 
z
" transform="scale(0.015625)"/>
        <path id="Helvetica-35" d="M 791 1141 
Q 847 659 1238 475 
Q 1438 381 1700 381 
Q 2200 381 2440 700 
Q 2681 1019 2681 1406 
Q 2681 1875 2395 2131 
Q 2109 2388 1709 2388 
Q 1419 2388 1211 2275 
Q 1003 2163 856 1963 
L 369 1991 
L 709 4400 
L 3034 4400 
L 3034 3856 
L 1131 3856 
L 941 2613 
Q 1097 2731 1238 2791 
Q 1488 2894 1816 2894 
Q 2431 2894 2859 2497 
Q 3288 2100 3288 1491 
Q 3288 856 2895 371 
Q 2503 -113 1644 -113 
Q 1097 -113 676 195 
Q 256 503 206 1141 
L 791 1141 
z
" transform="scale(0.015625)"/>
       </defs>
       <use xlink:href="#Helvetica-30"/>
       <use xlink:href="#Helvetica-2e" transform="translate(55.615234 0)"/>
       <use xlink:href="#Helvetica-32" transform="translate(83.398438 0)"/>
       <use xlink:href="#Helvetica-35" transform="translate(139.013672 0)"/>
      </g>
     </g>
    </g>
    <g id="xtick_3">
     <g id="line2d_3">
      <g>
       <use xlink:href="#mccf8a01b8a" x="166.313489" y="222.3" style="fill: #4a5360; stroke: #4a5360; stroke-width: 0.8"/>
      </g>
     </g>
     <g id="text_3">
      <!-- 0.50 -->
      <g style="fill: #4a5360" transform="translate(157.556067 235.256094) scale(0.09 -0.09)">
       <use xlink:href="#Helvetica-30"/>
       <use xlink:href="#Helvetica-2e" transform="translate(55.615234 0)"/>
       <use xlink:href="#Helvetica-35" transform="translate(83.398438 0)"/>
       <use xlink:href="#Helvetica-30" transform="translate(139.013672 0)"/>
      </g>
     </g>
    </g>
    <g id="xtick_4">
     <g id="line2d_4">
      <g>
       <use xlink:href="#mccf8a01b8a" x="207.882704" y="222.3" style="fill: #4a5360; stroke: #4a5360; stroke-width: 0.8"/>
      </g>
     </g>
     <g id="text_4">
      <!-- 0.75 -->
      <g style="fill: #4a5360" transform="translate(199.125282 235.256094) scale(0.09 -0.09)">
       <defs>
        <path id="Helvetica-37" d="M 3347 4400 
L 3347 3909 
Q 3131 3700 2773 3181 
Q 2416 2663 2141 2063 
Q 1869 1478 1728 997 
Q 1638 688 1494 0 
L 872 0 
Q 1084 1281 1809 2550 
Q 2238 3294 2709 3834 
L 234 3834 
L 234 4400 
L 3347 4400 
z
" transform="scale(0.015625)"/>
       </defs>
       <use xlink:href="#Helvetica-30"/>
       <use xlink:href="#Helvetica-2e" transform="translate(55.615234 0)"/>
       <use xlink:href="#Helvetica-37" transform="translate(83.398438 0)"/>
       <use xlink:href="#Helvetica-35" transform="translate(139.013672 0)"/>
      </g>
     </g>
    </g>
    <g id="xtick_5">
     <g id="line2d_5">
      <g>
       <use xlink:href="#mccf8a01b8a" x="249.451919" y="222.3" style="fill: #4a5360; stroke: #4a5360; stroke-width: 0.8"/>
      </g>
     </g>
     <g id="text_5">
      <!-- 1.00 -->
      <g style="fill: #4a5360" transform="translate(240.694497 235.256094) scale(0.09 -0.09)">
       <defs>
        <path id="Helvetica-31" d="M 613 3169 
L 613 3600 
Q 1222 3659 1462 3798 
Q 1703 3938 1822 4456 
L 2266 4456 
L 2266 0 
L 1666 0 
L 1666 3169 
L 613 3169 
z
" transform="scale(0.015625)"/>
       </defs>
       <use xlink:href="#Helvetica-31"/>
       <use xlink:href="#Helvetica-2e" transform="translate(55.615234 0)"/>
       <use xlink:href="#Helvetica-30" transform="translate(83.398438 0)"/>
       <use xlink:href="#Helvetica-30" transform="translate(139.013672 0)"/>
      </g>
     </g>
    </g>
    <g id="xtick_6">
     <g id="line2d_6">
      <g>
       <use xlink:href="#mccf8a01b8a" x="291.021134" y="222.3" style="fill: #4a5360; stroke: #4a5360; stroke-width: 0.8"/>
      </g>
     </g>
     <g id="text_6">
      <!-- 1.25 -->
      <g style="fill: #4a5360" transform="translate(282.263712 235.256094) scale(0.09 -0.09)">
       <use xlink:href="#Helvetica-31"/>
       <use xlink:href="#Helvetica-2e" transform="translate(55.615234 0)"/>
       <use xlink:href="#Helvetica-32" transform="translate(83.398438 0)"/>
       <use xlink:href="#Helvetica-35" transform="translate(139.013672 0)"/>
      </g>
     </g>
    </g>
    <g id="xtick_7">
     <g id="line2d_7">
      <g>
       <use xlink:href="#mccf8a01b8a" x="332.590349" y="222.3" style="fill: #4a5360; stroke: #4a5360; stroke-width: 0.8"/>
      </g>
     </g>
     <g id="text_7">
      <!-- 1.50 -->
      <g style="fill: #4a5360" transform="translate(323.832927 235.256094) scale(0.09 -0.09)">
       <use xlink:href="#Helvetica-31"/>
       <use xlink:href="#Helvetica-2e" transform="translate(55.615234 0)"/>
       <use xlink:href="#Helvetica-35" transform="translate(83.398438 0)"/>
       <use xlink:href="#Helvetica-30" transform="translate(139.013672 0)"/>
      </g>
     </g>
    </g>
    <g id="xtick_8">
     <g id="line2d_8">
      <g>
       <use xlink:href="#mccf8a01b8a" x="374.159564" y="222.3" style="fill: #4a5360; stroke: #4a5360; stroke-width: 0.8"/>
      </g>
     </g>
     <g id="text_8">
      <!-- 1.75 -->
      <g style="fill: #4a5360" transform="translate(365.402142 235.256094) scale(0.09 -0.09)">
       <use xlink:href="#Helvetica-31"/>
       <use xlink:href="#Helvetica-2e" transform="translate(55.615234 0)"/>
       <use xlink:href="#Helvetica-37" transform="translate(83.398438 0)"/>
       <use xlink:href="#Helvetica-35" transform="translate(139.013672 0)"/>
      </g>
     </g>
    </g>
    <g id="xtick_9">
     <g id="line2d_9">
      <g>
       <use xlink:href="#mccf8a01b8a" x="415.728778" y="222.3" style="fill: #4a5360; stroke: #4a5360; stroke-width: 0.8"/>
      </g>
     </g>
     <g id="text_9">
      <!-- 2.00 -->
      <g style="fill: #4a5360" transform="translate(406.971357 235.256094) scale(0.09 -0.09)">
       <use xlink:href="#Helvetica-32"/>
       <use xlink:href="#Helvetica-2e" transform="translate(55.615234 0)"/>
       <use xlink:href="#Helvetica-30" transform="translate(83.398438 0)"/>
       <use xlink:href="#Helvetica-30" transform="translate(139.013672 0)"/>
      </g>
     </g>
    </g>
    <g id="text_10">
     <!-- Beta  $\beta$  (systematic risk) -->
     <g style="fill: #0f1722" transform="translate(177.674233 248.832031) scale(0.1 -0.1)">
      <defs>
       <path id="Helvetica-42" d="M 2213 2650 
Q 2606 2650 2825 2759 
Q 3169 2931 3169 3378 
Q 3169 3828 2803 3984 
Q 2597 4072 2191 4072 
L 1081 4072 
L 1081 2650 
L 2213 2650 
z
M 2422 531 
Q 2994 531 3238 863 
Q 3391 1072 3391 1369 
Q 3391 1869 2944 2050 
Q 2706 2147 2316 2147 
L 1081 2147 
L 1081 531 
L 2422 531 
z
M 472 4591 
L 2444 4591 
Q 3250 4591 3591 4109 
Q 3791 3825 3791 3453 
Q 3791 3019 3544 2741 
Q 3416 2594 3175 2472 
Q 3528 2338 3703 2169 
Q 4013 1869 4013 1341 
Q 4013 897 3734 538 
Q 3319 0 2413 0 
L 472 0 
L 472 4591 
z
" transform="scale(0.015625)"/>
       <path id="Helvetica-65" d="M 1806 3422 
Q 2163 3422 2497 3255 
Q 2831 3088 3006 2822 
Q 3175 2569 3231 2231 
Q 3281 2000 3281 1494 
L 828 1494 
Q 844 984 1069 676 
Q 1294 369 1766 369 
Q 2206 369 2469 659 
Q 2619 828 2681 1050 
L 3234 1050 
Q 3213 866 3089 639 
Q 2966 413 2813 269 
Q 2556 19 2178 -69 
Q 1975 -119 1719 -119 
Q 1094 -119 659 336 
Q 225 791 225 1609 
Q 225 2416 662 2919 
Q 1100 3422 1806 3422 
z
M 2703 1941 
Q 2669 2306 2544 2525 
Q 2313 2931 1772 2931 
Q 1384 2931 1121 2651 
Q 859 2372 844 1941 
L 2703 1941 
z
M 1753 3428 
L 1753 3428 
z
" transform="scale(0.015625)"/>
       <path id="Helvetica-74" d="M 525 4281 
L 1094 4281 
L 1094 3347 
L 1628 3347 
L 1628 2888 
L 1094 2888 
L 1094 703 
Q 1094 528 1213 469 
Q 1278 434 1431 434 
Q 1472 434 1519 436 
Q 1566 438 1628 444 
L 1628 0 
Q 1531 -28 1426 -40 
Q 1322 -53 1200 -53 
Q 806 -53 665 148 
Q 525 350 525 672 
L 525 2888 
L 72 2888 
L 72 3347 
L 525 3347 
L 525 4281 
z
" transform="scale(0.015625)"/>
       <path id="Helvetica-61" d="M 844 891 
Q 844 647 1022 506 
Q 1200 366 1444 366 
Q 1741 366 2019 503 
Q 2488 731 2488 1250 
L 2488 1703 
Q 2384 1638 2221 1594 
Q 2059 1550 1903 1531 
L 1563 1488 
Q 1256 1447 1103 1359 
Q 844 1213 844 891 
z
M 2206 2028 
Q 2400 2053 2466 2191 
Q 2503 2266 2503 2406 
Q 2503 2694 2298 2823 
Q 2094 2953 1713 2953 
Q 1272 2953 1088 2716 
Q 984 2584 953 2325 
L 428 2325 
Q 444 2944 830 3186 
Q 1216 3428 1725 3428 
Q 2316 3428 2684 3203 
Q 3050 2978 3050 2503 
L 3050 575 
Q 3050 488 3086 434 
Q 3122 381 3238 381 
Q 3275 381 3322 386 
Q 3369 391 3422 400 
L 3422 -16 
Q 3291 -53 3222 -62 
Q 3153 -72 3034 -72 
Q 2744 -72 2613 134 
Q 2544 244 2516 444 
Q 2344 219 2022 53 
Q 1700 -113 1313 -113 
Q 847 -113 551 170 
Q 256 453 256 878 
Q 256 1344 547 1600 
Q 838 1856 1309 1916 
L 2206 2028 
z
M 1741 3428 
L 1741 3428 
z
" transform="scale(0.015625)"/>
       <path id="Helvetica-20" transform="scale(0.015625)"/>
       <path id="DejaVuSans-Oblique-3b2" d="M 872 216 
L 572 -1331 
L -6 -1331 
L 928 3478 
Q 1206 4903 2538 4903 
Q 3888 4903 3659 3700 
Q 3503 2844 2894 2531 
Q 3713 2250 3553 1416 
Q 3272 -69 1759 -66 
Q 1097 -63 872 216 
z
M 1019 966 
Q 1259 422 1875 425 
Q 2775 425 2966 1406 
Q 3138 2288 1675 2219 
L 1778 2750 
Q 2909 2731 3106 3750 
Q 3241 4438 2509 4434 
Q 1691 4434 1503 3459 
L 1019 966 
z
" transform="scale(0.015625)"/>
       <path id="Helvetica-28" d="M 1894 4666 
Q 1403 3713 1256 3263 
Q 1034 2578 1034 1681 
Q 1034 775 1288 25 
Q 1444 -438 1903 -1306 
L 1525 -1306 
Q 1069 -594 959 -397 
Q 850 -200 722 138 
Q 547 600 478 1125 
Q 444 1397 444 1644 
Q 444 2569 734 3291 
Q 919 3750 1503 4666 
L 1894 4666 
z
" transform="scale(0.015625)"/>
       <path id="Helvetica-73" d="M 747 1050 
Q 772 769 888 619 
Q 1100 347 1625 347 
Q 1938 347 2175 483 
Q 2413 619 2413 903 
Q 2413 1119 2222 1231 
Q 2100 1300 1741 1391 
L 1294 1503 
Q 866 1609 663 1741 
Q 300 1969 300 2372 
Q 300 2847 642 3140 
Q 984 3434 1563 3434 
Q 2319 3434 2653 2991 
Q 2863 2709 2856 2384 
L 2325 2384 
Q 2309 2575 2191 2731 
Q 1997 2953 1519 2953 
Q 1200 2953 1036 2831 
Q 872 2709 872 2509 
Q 872 2291 1088 2159 
Q 1213 2081 1456 2022 
L 1828 1931 
Q 2434 1784 2641 1647 
Q 2969 1431 2969 969 
Q 2969 522 2630 197 
Q 2291 -128 1597 -128 
Q 850 -128 539 211 
Q 228 550 206 1050 
L 747 1050 
z
M 1578 3428 
L 1578 3428 
z
" transform="scale(0.015625)"/>
       <path id="Helvetica-79" d="M 2503 3347 
L 3125 3347 
Q 3006 3025 2597 1878 
Q 2291 1016 2084 472 
Q 1597 -809 1397 -1090 
Q 1197 -1372 709 -1372 
Q 591 -1372 527 -1362 
Q 463 -1353 369 -1328 
L 369 -816 
Q 516 -856 581 -865 
Q 647 -875 697 -875 
Q 853 -875 926 -823 
Q 1000 -772 1050 -697 
Q 1066 -672 1162 -440 
Q 1259 -209 1303 -97 
L 66 3347 
L 703 3347 
L 1600 622 
L 2503 3347 
z
M 1597 3428 
L 1597 3428 
z
" transform="scale(0.015625)"/>
       <path id="Helvetica-6d" d="M 413 3347 
L 969 3347 
L 969 2872 
Q 1169 3119 1331 3231 
Q 1609 3422 1963 3422 
Q 2363 3422 2606 3225 
Q 2744 3113 2856 2894 
Q 3044 3163 3297 3292 
Q 3550 3422 3866 3422 
Q 4541 3422 4784 2934 
Q 4916 2672 4916 2228 
L 4916 0 
L 4331 0 
L 4331 2325 
Q 4331 2659 4164 2784 
Q 3997 2909 3756 2909 
Q 3425 2909 3186 2687 
Q 2947 2466 2947 1947 
L 2947 0 
L 2375 0 
L 2375 2184 
Q 2375 2525 2294 2681 
Q 2166 2916 1816 2916 
Q 1497 2916 1236 2669 
Q 975 2422 975 1775 
L 975 0 
L 413 0 
L 413 3347 
z
" transform="scale(0.015625)"/>
       <path id="Helvetica-69" d="M 413 3331 
L 984 3331 
L 984 0 
L 413 0 
L 413 3331 
z
M 413 4591 
L 984 4591 
L 984 3953 
L 413 3953 
L 413 4591 
z
" transform="scale(0.015625)"/>
       <path id="Helvetica-63" d="M 1703 3444 
Q 2269 3444 2623 3169 
Q 2978 2894 3050 2222 
L 2503 2222 
Q 2453 2531 2275 2736 
Q 2097 2941 1703 2941 
Q 1166 2941 934 2416 
Q 784 2075 784 1575 
Q 784 1072 996 728 
Q 1209 384 1666 384 
Q 2016 384 2220 598 
Q 2425 813 2503 1184 
L 3050 1184 
Q 2956 519 2581 211 
Q 2206 -97 1622 -97 
Q 966 -97 575 383 
Q 184 863 184 1581 
Q 184 2463 612 2953 
Q 1041 3444 1703 3444 
z
M 1616 3428 
L 1616 3428 
z
" transform="scale(0.015625)"/>
       <path id="Helvetica-72" d="M 428 3347 
L 963 3347 
L 963 2769 
Q 1028 2938 1284 3180 
Q 1541 3422 1875 3422 
Q 1891 3422 1928 3419 
Q 1966 3416 2056 3406 
L 2056 2813 
Q 2006 2822 1964 2825 
Q 1922 2828 1872 2828 
Q 1447 2828 1219 2554 
Q 991 2281 991 1925 
L 991 0 
L 428 0 
L 428 3347 
z
" transform="scale(0.015625)"/>
       <path id="Helvetica-6b" d="M 400 4591 
L 941 4591 
L 941 1925 
L 2384 3347 
L 3103 3347 
L 1822 2094 
L 3175 0 
L 2456 0 
L 1413 1688 
L 941 1256 
L 941 0 
L 400 0 
L 400 4591 
z
" transform="scale(0.015625)"/>
       <path id="Helvetica-29" d="M 222 -1306 
Q 719 -338 863 106 
Q 1081 778 1081 1681 
Q 1081 2584 828 3334 
Q 672 3797 213 4666 
L 591 4666 
Q 1072 3897 1173 3717 
Q 1275 3538 1394 3222 
Q 1544 2831 1608 2450 
Q 1672 2069 1672 1716 
Q 1672 791 1378 66 
Q 1194 -400 613 -1306 
L 222 -1306 
z
" transform="scale(0.015625)"/>
      </defs>
      <use xlink:href="#Helvetica-42" transform="translate(0 0.390625)"/>
      <use xlink:href="#Helvetica-65" transform="translate(66.699219 0.390625)"/>
      <use xlink:href="#Helvetica-74" transform="translate(122.314453 0.390625)"/>
      <use xlink:href="#Helvetica-61" transform="translate(150.097656 0.390625)"/>
      <use xlink:href="#Helvetica-20" transform="translate(205.712891 0.390625)"/>
      <use xlink:href="#Helvetica-20" transform="translate(233.496094 0.390625)"/>
      <use xlink:href="#DejaVuSans-Oblique-3b2" transform="translate(261.279297 0.390625)"/>
      <use xlink:href="#Helvetica-20" transform="translate(325.097656 0.390625)"/>
      <use xlink:href="#Helvetica-20" transform="translate(352.880859 0.390625)"/>
      <use xlink:href="#Helvetica-28" transform="translate(380.664062 0.390625)"/>
      <use xlink:href="#Helvetica-73" transform="translate(413.964844 0.390625)"/>
      <use xlink:href="#Helvetica-79" transform="translate(463.964844 0.390625)"/>
      <use xlink:href="#Helvetica-73" transform="translate(513.964844 0.390625)"/>
      <use xlink:href="#Helvetica-74" transform="translate(563.964844 0.390625)"/>
      <use xlink:href="#Helvetica-65" transform="translate(591.748047 0.390625)"/>
      <use xlink:href="#Helvetica-6d" transform="translate(647.363281 0.390625)"/>
      <use xlink:href="#Helvetica-61" transform="translate(730.664062 0.390625)"/>
      <use xlink:href="#Helvetica-74" transform="translate(786.279297 0.390625)"/>
      <use xlink:href="#Helvetica-69" transform="translate(814.0625 0.390625)"/>
      <use xlink:href="#Helvetica-63" transform="translate(836.279297 0.390625)"/>
      <use xlink:href="#Helvetica-20" transform="translate(886.279297 0.390625)"/>
      <use xlink:href="#Helvetica-72" transform="translate(914.0625 0.390625)"/>
      <use xlink:href="#Helvetica-69" transform="translate(947.363281 0.390625)"/>
      <use xlink:href="#Helvetica-73" transform="translate(969.580078 0.390625)"/>
      <use xlink:href="#Helvetica-6b" transform="translate(1019.580078 0.390625)"/>
      <use xlink:href="#Helvetica-29" transform="translate(1069.580078 0.390625)"/>
     </g>
    </g>
   </g>
   <g id="matplotlib.axis_2">
    <g id="ytick_1">
     <g id="line2d_10">
      <defs>
       <path id="md5b41c095a" d="M 0 0 
L -3 0 
" style="stroke: #4a5360; stroke-width: 0.8"/>
      </defs>
      <g>
       <use xlink:href="#md5b41c095a" x="49.919688" y="222.3" style="fill: #4a5360; stroke: #4a5360; stroke-width: 0.8"/>
      </g>
     </g>
     <g id="text_11">
      <!-- 0.000 -->
      <g style="fill: #4a5360" transform="translate(20.9 225.528047) scale(0.09 -0.09)">
       <use xlink:href="#Helvetica-30"/>
       <use xlink:href="#Helvetica-2e" transform="translate(55.615234 0)"/>
       <use xlink:href="#Helvetica-30" transform="translate(83.398438 0)"/>
       <use xlink:href="#Helvetica-30" transform="translate(139.013672 0)"/>
       <use xlink:href="#Helvetica-30" transform="translate(194.628906 0)"/>
      </g>
     </g>
    </g>
    <g id="ytick_2">
     <g id="line2d_11">
      <g>
       <use xlink:href="#md5b41c095a" x="49.919688" y="197.856818" style="fill: #4a5360; stroke: #4a5360; stroke-width: 0.8"/>
      </g>
     </g>
     <g id="text_12">
      <!-- 0.025 -->
      <g style="fill: #4a5360" transform="translate(20.9 201.084865) scale(0.09 -0.09)">
       <use xlink:href="#Helvetica-30"/>
       <use xlink:href="#Helvetica-2e" transform="translate(55.615234 0)"/>
       <use xlink:href="#Helvetica-30" transform="translate(83.398438 0)"/>
       <use xlink:href="#Helvetica-32" transform="translate(139.013672 0)"/>
       <use xlink:href="#Helvetica-35" transform="translate(194.628906 0)"/>
      </g>
     </g>
    </g>
    <g id="ytick_3">
     <g id="line2d_12">
      <g>
       <use xlink:href="#md5b41c095a" x="49.919688" y="173.413636" style="fill: #4a5360; stroke: #4a5360; stroke-width: 0.8"/>
      </g>
     </g>
     <g id="text_13">
      <!-- 0.050 -->
      <g style="fill: #4a5360" transform="translate(20.9 176.641683) scale(0.09 -0.09)">
       <use xlink:href="#Helvetica-30"/>
       <use xlink:href="#Helvetica-2e" transform="translate(55.615234 0)"/>
       <use xlink:href="#Helvetica-30" transform="translate(83.398438 0)"/>
       <use xlink:href="#Helvetica-35" transform="translate(139.013672 0)"/>
       <use xlink:href="#Helvetica-30" transform="translate(194.628906 0)"/>
      </g>
     </g>
    </g>
    <g id="ytick_4">
     <g id="line2d_13">
      <g>
       <use xlink:href="#md5b41c095a" x="49.919688" y="148.970455" style="fill: #4a5360; stroke: #4a5360; stroke-width: 0.8"/>
      </g>
     </g>
     <g id="text_14">
      <!-- 0.075 -->
      <g style="fill: #4a5360" transform="translate(20.9 152.198501) scale(0.09 -0.09)">
       <use xlink:href="#Helvetica-30"/>
       <use xlink:href="#Helvetica-2e" transform="translate(55.615234 0)"/>
       <use xlink:href="#Helvetica-30" transform="translate(83.398438 0)"/>
       <use xlink:href="#Helvetica-37" transform="translate(139.013672 0)"/>
       <use xlink:href="#Helvetica-35" transform="translate(194.628906 0)"/>
      </g>
     </g>
    </g>
    <g id="ytick_5">
     <g id="line2d_14">
      <g>
       <use xlink:href="#md5b41c095a" x="49.919688" y="124.527273" style="fill: #4a5360; stroke: #4a5360; stroke-width: 0.8"/>
      </g>
     </g>
     <g id="text_15">
      <!-- 0.100 -->
      <g style="fill: #4a5360" transform="translate(20.9 127.75532) scale(0.09 -0.09)">
       <use xlink:href="#Helvetica-30"/>
       <use xlink:href="#Helvetica-2e" transform="translate(55.615234 0)"/>
       <use xlink:href="#Helvetica-31" transform="translate(83.398438 0)"/>
       <use xlink:href="#Helvetica-30" transform="translate(139.013672 0)"/>
       <use xlink:href="#Helvetica-30" transform="translate(194.628906 0)"/>
      </g>
     </g>
    </g>
    <g id="ytick_6">
     <g id="line2d_15">
      <g>
       <use xlink:href="#md5b41c095a" x="49.919688" y="100.084091" style="fill: #4a5360; stroke: #4a5360; stroke-width: 0.8"/>
      </g>
     </g>
     <g id="text_16">
      <!-- 0.125 -->
      <g style="fill: #4a5360" transform="translate(20.9 103.312138) scale(0.09 -0.09)">
       <use xlink:href="#Helvetica-30"/>
       <use xlink:href="#Helvetica-2e" transform="translate(55.615234 0)"/>
       <use xlink:href="#Helvetica-31" transform="translate(83.398438 0)"/>
       <use xlink:href="#Helvetica-32" transform="translate(139.013672 0)"/>
       <use xlink:href="#Helvetica-35" transform="translate(194.628906 0)"/>
      </g>
     </g>
    </g>
    <g id="ytick_7">
     <g id="line2d_16">
      <g>
       <use xlink:href="#md5b41c095a" x="49.919688" y="75.640909" style="fill: #4a5360; stroke: #4a5360; stroke-width: 0.8"/>
      </g>
     </g>
     <g id="text_17">
      <!-- 0.150 -->
      <g style="fill: #4a5360" transform="translate(20.9 78.868956) scale(0.09 -0.09)">
       <use xlink:href="#Helvetica-30"/>
       <use xlink:href="#Helvetica-2e" transform="translate(55.615234 0)"/>
       <use xlink:href="#Helvetica-31" transform="translate(83.398438 0)"/>
       <use xlink:href="#Helvetica-35" transform="translate(139.013672 0)"/>
       <use xlink:href="#Helvetica-30" transform="translate(194.628906 0)"/>
      </g>
     </g>
    </g>
    <g id="ytick_8">
     <g id="line2d_17">
      <g>
       <use xlink:href="#md5b41c095a" x="49.919688" y="51.197727" style="fill: #4a5360; stroke: #4a5360; stroke-width: 0.8"/>
      </g>
     </g>
     <g id="text_18">
      <!-- 0.175 -->
      <g style="fill: #4a5360" transform="translate(20.9 54.425774) scale(0.09 -0.09)">
       <use xlink:href="#Helvetica-30"/>
       <use xlink:href="#Helvetica-2e" transform="translate(55.615234 0)"/>
       <use xlink:href="#Helvetica-31" transform="translate(83.398438 0)"/>
       <use xlink:href="#Helvetica-37" transform="translate(139.013672 0)"/>
       <use xlink:href="#Helvetica-35" transform="translate(194.628906 0)"/>
      </g>
     </g>
    </g>
    <g id="ytick_9">
     <g id="line2d_18">
      <g>
       <use xlink:href="#md5b41c095a" x="49.919688" y="26.754545" style="fill: #4a5360; stroke: #4a5360; stroke-width: 0.8"/>
      </g>
     </g>
     <g id="text_19">
      <!-- 0.200 -->
      <g style="fill: #4a5360" transform="translate(20.9 29.982592) scale(0.09 -0.09)">
       <use xlink:href="#Helvetica-30"/>
       <use xlink:href="#Helvetica-2e" transform="translate(55.615234 0)"/>
       <use xlink:href="#Helvetica-32" transform="translate(83.398438 0)"/>
       <use xlink:href="#Helvetica-30" transform="translate(139.013672 0)"/>
       <use xlink:href="#Helvetica-30" transform="translate(194.628906 0)"/>
      </g>
     </g>
    </g>
    <g id="text_20">
     <!-- Expected return  $E[R]$ -->
     <g style="fill: #0f1722" transform="translate(14.8 163.25) rotate(-90) scale(0.1 -0.1)">
      <defs>
       <path id="Helvetica-45" d="M 547 4591 
L 3894 4591 
L 3894 4028 
L 1153 4028 
L 1153 2634 
L 3688 2634 
L 3688 2103 
L 1153 2103 
L 1153 547 
L 3941 547 
L 3941 0 
L 547 0 
L 547 4591 
z
M 2244 4591 
L 2244 4591 
z
" transform="scale(0.015625)"/>
       <path id="Helvetica-78" d="M 94 3347 
L 822 3347 
L 1591 2169 
L 2369 3347 
L 3053 3331 
L 1925 1716 
L 3103 0 
L 2384 0 
L 1553 1256 
L 747 0 
L 34 0 
L 1213 1716 
L 94 3347 
z
" transform="scale(0.015625)"/>
       <path id="Helvetica-70" d="M 1825 378 
Q 2219 378 2480 708 
Q 2741 1038 2741 1694 
Q 2741 2094 2625 2381 
Q 2406 2934 1825 2934 
Q 1241 2934 1025 2350 
Q 909 2038 909 1556 
Q 909 1169 1025 897 
Q 1244 378 1825 378 
z
M 369 3331 
L 916 3331 
L 916 2888 
Q 1084 3116 1284 3241 
Q 1569 3428 1953 3428 
Q 2522 3428 2919 2992 
Q 3316 2556 3316 1747 
Q 3316 653 2744 184 
Q 2381 -113 1900 -113 
Q 1522 -113 1266 53 
Q 1116 147 931 375 
L 931 -1334 
L 369 -1334 
L 369 3331 
z
" transform="scale(0.015625)"/>
       <path id="Helvetica-64" d="M 769 1634 
Q 769 1097 997 734 
Q 1225 372 1728 372 
Q 2119 372 2370 708 
Q 2622 1044 2622 1672 
Q 2622 2306 2362 2611 
Q 2103 2916 1722 2916 
Q 1297 2916 1033 2591 
Q 769 2266 769 1634 
z
M 1616 3406 
Q 2000 3406 2259 3244 
Q 2409 3150 2600 2916 
L 2600 4606 
L 3141 4606 
L 3141 0 
L 2634 0 
L 2634 466 
Q 2438 156 2169 18 
Q 1900 -119 1553 -119 
Q 994 -119 584 351 
Q 175 822 175 1603 
Q 175 2334 548 2870 
Q 922 3406 1616 3406 
z
" transform="scale(0.015625)"/>
       <path id="Helvetica-75" d="M 975 3347 
L 975 1125 
Q 975 869 1056 706 
Q 1206 406 1616 406 
Q 2203 406 2416 931 
Q 2531 1213 2531 1703 
L 2531 3347 
L 3094 3347 
L 3094 0 
L 2563 0 
L 2569 494 
Q 2459 303 2297 172 
Q 1975 -91 1516 -91 
Q 800 -91 541 388 
Q 400 644 400 1072 
L 400 3347 
L 975 3347 
z
M 1747 3428 
L 1747 3428 
z
" transform="scale(0.015625)"/>
       <path id="Helvetica-6e" d="M 413 3347 
L 947 3347 
L 947 2872 
Q 1184 3166 1450 3294 
Q 1716 3422 2041 3422 
Q 2753 3422 3003 2925 
Q 3141 2653 3141 2147 
L 3141 0 
L 2569 0 
L 2569 2109 
Q 2569 2416 2478 2603 
Q 2328 2916 1934 2916 
Q 1734 2916 1606 2875 
Q 1375 2806 1200 2600 
Q 1059 2434 1017 2257 
Q 975 2081 975 1753 
L 975 0 
L 413 0 
L 413 3347 
z
M 1734 3428 
L 1734 3428 
z
" transform="scale(0.015625)"/>
       <path id="DejaVuSans-Oblique-45" d="M 1081 4666 
L 4031 4666 
L 3928 4134 
L 1606 4134 
L 1338 2753 
L 3566 2753 
L 3463 2222 
L 1234 2222 
L 909 531 
L 3284 531 
L 3181 0 
L 172 0 
L 1081 4666 
z
" transform="scale(0.015625)"/>
       <path id="DejaVuSans-5b" d="M 550 4863 
L 1875 4863 
L 1875 4416 
L 1125 4416 
L 1125 -397 
L 1875 -397 
L 1875 -844 
L 550 -844 
L 550 4863 
z
" transform="scale(0.015625)"/>
       <path id="DejaVuSans-Oblique-52" d="M 1613 4147 
L 1294 2491 
L 2106 2491 
Q 2584 2491 2879 2755 
Q 3175 3019 3175 3444 
Q 3175 3784 2976 3965 
Q 2778 4147 2406 4147 
L 1613 4147 
z
M 2772 2241 
Q 2972 2194 3105 2009 
Q 3238 1825 3413 1275 
L 3809 0 
L 3144 0 
L 2778 1197 
Q 2638 1659 2453 1815 
Q 2269 1972 1888 1972 
L 1191 1972 
L 806 0 
L 172 0 
L 1081 4666 
L 2503 4666 
Q 3150 4666 3495 4373 
Q 3841 4081 3841 3531 
Q 3841 3044 3547 2687 
Q 3253 2331 2772 2241 
z
" transform="scale(0.015625)"/>
       <path id="DejaVuSans-5d" d="M 1947 4863 
L 1947 -844 
L 622 -844 
L 622 -397 
L 1369 -397 
L 1369 4416 
L 622 4416 
L 622 4863 
L 1947 4863 
z
" transform="scale(0.015625)"/>
      </defs>
      <use xlink:href="#Helvetica-45" transform="translate(0 0.015625)"/>
      <use xlink:href="#Helvetica-78" transform="translate(66.699219 0.015625)"/>
      <use xlink:href="#Helvetica-70" transform="translate(116.699219 0.015625)"/>
      <use xlink:href="#Helvetica-65" transform="translate(172.314453 0.015625)"/>
      <use xlink:href="#Helvetica-63" transform="translate(227.929688 0.015625)"/>
      <use xlink:href="#Helvetica-74" transform="translate(277.929688 0.015625)"/>
      <use xlink:href="#Helvetica-65" transform="translate(305.712891 0.015625)"/>
      <use xlink:href="#Helvetica-64" transform="translate(361.328125 0.015625)"/>
      <use xlink:href="#Helvetica-20" transform="translate(416.943359 0.015625)"/>
      <use xlink:href="#Helvetica-72" transform="translate(444.726562 0.015625)"/>
      <use xlink:href="#Helvetica-65" transform="translate(478.027344 0.015625)"/>
      <use xlink:href="#Helvetica-74" transform="translate(533.642578 0.015625)"/>
      <use xlink:href="#Helvetica-75" transform="translate(561.425781 0.015625)"/>
      <use xlink:href="#Helvetica-72" transform="translate(617.041016 0.015625)"/>
      <use xlink:href="#Helvetica-6e" transform="translate(650.341797 0.015625)"/>
      <use xlink:href="#Helvetica-20" transform="translate(705.957031 0.015625)"/>
      <use xlink:href="#Helvetica-20" transform="translate(733.740234 0.015625)"/>
      <use xlink:href="#DejaVuSans-Oblique-45" transform="translate(761.523438 0.015625)"/>
      <use xlink:href="#DejaVuSans-5b" transform="translate(824.707031 0.015625)"/>
      <use xlink:href="#DejaVuSans-Oblique-52" transform="translate(860.595703 0.015625)"/>
      <use xlink:href="#DejaVuSans-5d" transform="translate(930.078125 0.015625)"/>
     </g>
    </g>
   </g>
   <g id="line2d_19">
    <path d="M 49.919688 206.656364 
L 415.728778 56.086364 
L 415.728778 56.086364 
" clip-path="url(#p91a5be1afe)" style="fill: none; stroke: #094459; stroke-width: 2.2; stroke-linecap: square"/>
   </g>
   <g id="line2d_20">
    <path d="M 49.919688 192.968182 
L 415.728778 192.968182 
" clip-path="url(#p91a5be1afe)" style="fill: none; stroke-dasharray: 0.6,0.99; stroke-dashoffset: 0; stroke: #7c8593; stroke-width: 0.6"/>
   </g>
   <g id="patch_3">
    <path d="M 49.919688 222.3 
L 49.919688 7.2 
" style="fill: none; stroke: #4a5360; stroke-width: 0.8; stroke-linejoin: miter; stroke-linecap: square"/>
   </g>
   <g id="patch_4">
    <path d="M 49.919688 222.3 
L 415.728778 222.3 
" style="fill: none; stroke: #4a5360; stroke-width: 0.8; stroke-linejoin: miter; stroke-linecap: square"/>
   </g>
   <g id="text_21">
    <!-- $r_f$ -->
    <g style="fill: #0f1722" transform="translate(90.175059 195.968182) scale(0.1 -0.1)">
     <defs>
      <path id="DejaVuSans-Oblique-72" d="M 2853 2969 
Q 2766 3016 2653 3041 
Q 2541 3066 2413 3066 
Q 1953 3066 1609 2717 
Q 1266 2369 1153 1784 
L 800 0 
L 225 0 
L 909 3500 
L 1484 3500 
L 1375 2956 
Q 1603 3259 1920 3421 
Q 2238 3584 2597 3584 
Q 2691 3584 2781 3573 
Q 2872 3563 2963 3538 
L 2853 2969 
z
" transform="scale(0.015625)"/>
      <path id="DejaVuSans-Oblique-66" d="M 3059 4863 
L 2969 4384 
L 2419 4384 
Q 2106 4384 1964 4261 
Q 1822 4138 1753 3809 
L 1691 3500 
L 2638 3500 
L 2553 3053 
L 1606 3053 
L 1013 0 
L 434 0 
L 1031 3053 
L 481 3053 
L 563 3500 
L 1113 3500 
L 1159 3744 
Q 1278 4363 1576 4613 
Q 1875 4863 2516 4863 
L 3059 4863 
z
" transform="scale(0.015625)"/>
     </defs>
     <use xlink:href="#DejaVuSans-Oblique-72"/>
     <use xlink:href="#DejaVuSans-Oblique-66" transform="translate(41.113281 -16.40625) scale(0.7)"/>
    </g>
   </g>
   <g id="text_22">
    <!-- Market -->
    <g style="fill: #0f1722" transform="translate(256.451919 127.527273) scale(0.1 -0.1)">
     <defs>
      <path id="Helvetica-4d" d="M 472 4591 
L 1363 4591 
L 2681 709 
L 3991 4591 
L 4872 4591 
L 4872 0 
L 4281 0 
L 4281 2709 
Q 4281 2850 4287 3175 
Q 4294 3500 4294 3872 
L 2984 0 
L 2369 0 
L 1050 3872 
L 1050 3731 
Q 1050 3563 1058 3217 
Q 1066 2872 1066 2709 
L 1066 0 
L 472 0 
L 472 4591 
z
" transform="scale(0.015625)"/>
     </defs>
     <use xlink:href="#Helvetica-4d"/>
     <use xlink:href="#Helvetica-61" transform="translate(83.300781 0)"/>
     <use xlink:href="#Helvetica-72" transform="translate(138.916016 0)"/>
     <use xlink:href="#Helvetica-6b" transform="translate(172.216797 0)"/>
     <use xlink:href="#Helvetica-65" transform="translate(222.216797 0)"/>
     <use xlink:href="#Helvetica-74" transform="translate(277.832031 0)"/>
    </g>
   </g>
   <g id="text_23">
    <!-- Low-β -->
    <g style="fill: #0f1722" transform="translate(156.685803 168.591818) scale(0.1 -0.1)">
     <defs>
      <path id="Helvetica-4c" d="M 488 4591 
L 1109 4591 
L 1109 547 
L 3434 547 
L 3434 0 
L 488 0 
L 488 4591 
z
" transform="scale(0.015625)"/>
      <path id="Helvetica-6f" d="M 1741 363 
Q 2300 363 2508 786 
Q 2716 1209 2716 1728 
Q 2716 2197 2566 2491 
Q 2328 2953 1747 2953 
Q 1231 2953 997 2559 
Q 763 2166 763 1609 
Q 763 1075 997 719 
Q 1231 363 1741 363 
z
M 1763 3444 
Q 2409 3444 2856 3012 
Q 3303 2581 3303 1744 
Q 3303 934 2909 406 
Q 2516 -122 1688 -122 
Q 997 -122 590 345 
Q 184 813 184 1600 
Q 184 2444 612 2944 
Q 1041 3444 1763 3444 
z
M 1744 3428 
L 1744 3428 
z
" transform="scale(0.015625)"/>
      <path id="Helvetica-77" d="M 672 3347 
L 1316 709 
L 1969 3347 
L 2600 3347 
L 3256 725 
L 3941 3347 
L 4503 3347 
L 3531 0 
L 2947 0 
L 2266 2591 
L 1606 0 
L 1022 0 
L 56 3347 
L 672 3347 
z
" transform="scale(0.015625)"/>
      <path id="Helvetica-2d" d="M 266 2072 
L 1834 2072 
L 1834 1494 
L 266 1494 
L 266 2072 
z
" transform="scale(0.015625)"/>
      <path id="Helvetica-3b2" d="M 1131 -1253 
L 563 -1253 
L 563 3134 
Q 563 4606 2009 4634 
Q 2578 4634 2956 4353 
Q 3334 4063 3341 3525 
Q 3334 2681 2559 2444 
L 2559 2431 
Q 3538 2278 3553 1288 
Q 3547 703 3206 325 
Q 2853 -56 2253 -63 
Q 1888 -63 1638 44 
Q 1381 153 1131 428 
L 1131 -1253 
z
M 1141 1544 
Q 1141 1319 1184 1113 
Q 1228 916 1331 750 
Q 1441 588 1638 500 
Q 1831 397 2131 397 
Q 2534 397 2759 659 
Q 2975 909 2975 1306 
Q 2969 1778 2681 1978 
Q 2394 2163 1966 2163 
Q 1803 2156 1638 2144 
L 1638 2625 
Q 1778 2625 1906 2631 
Q 2266 2638 2516 2828 
Q 2759 3016 2766 3431 
Q 2747 4172 1978 4172 
Q 1534 4166 1338 3909 
Q 1141 3647 1141 3200 
L 1141 1544 
z
" transform="scale(0.015625)"/>
     </defs>
     <use xlink:href="#Helvetica-4c"/>
     <use xlink:href="#Helvetica-6f" transform="translate(55.615234 0)"/>
     <use xlink:href="#Helvetica-77" transform="translate(111.230469 0)"/>
     <use xlink:href="#Helvetica-2d" transform="translate(183.447266 0)"/>
     <use xlink:href="#Helvetica-3b2" transform="translate(216.748047 0)"/>
    </g>
   </g>
   <g id="text_24">
    <!-- High-β -->
    <g style="fill: #0f1722" transform="translate(356.218035 86.462727) scale(0.1 -0.1)">
     <defs>
      <path id="Helvetica-48" d="M 503 4591 
L 1131 4591 
L 1131 2694 
L 3519 2694 
L 3519 4591 
L 4147 4591 
L 4147 0 
L 3519 0 
L 3519 2147 
L 1131 2147 
L 1131 0 
L 503 0 
L 503 4591 
z
" transform="scale(0.015625)"/>
      <path id="Helvetica-67" d="M 1594 3406 
Q 1988 3406 2281 3213 
Q 2441 3103 2606 2894 
L 2606 3316 
L 3125 3316 
L 3125 272 
Q 3125 -366 2938 -734 
Q 2588 -1416 1616 -1416 
Q 1075 -1416 706 -1173 
Q 338 -931 294 -416 
L 866 -416 
Q 906 -641 1028 -763 
Q 1219 -950 1628 -950 
Q 2275 -950 2475 -494 
Q 2594 -225 2584 466 
Q 2416 209 2178 84 
Q 1941 -41 1550 -41 
Q 1006 -41 598 345 
Q 191 731 191 1622 
Q 191 2463 602 2934 
Q 1013 3406 1594 3406 
z
M 2606 1688 
Q 2606 2309 2350 2609 
Q 2094 2909 1697 2909 
Q 1103 2909 884 2353 
Q 769 2056 769 1575 
Q 769 1009 998 714 
Q 1228 419 1616 419 
Q 2222 419 2469 966 
Q 2606 1275 2606 1688 
z
M 1659 3428 
L 1659 3428 
z
" transform="scale(0.015625)"/>
      <path id="Helvetica-68" d="M 413 4606 
L 975 4606 
L 975 2894 
Q 1175 3147 1334 3250 
Q 1606 3428 2013 3428 
Q 2741 3428 3000 2919 
Q 3141 2641 3141 2147 
L 3141 0 
L 2563 0 
L 2563 2109 
Q 2563 2478 2469 2650 
Q 2316 2925 1894 2925 
Q 1544 2925 1259 2684 
Q 975 2444 975 1775 
L 975 0 
L 413 0 
L 413 4606 
z
" transform="scale(0.015625)"/>
     </defs>
     <use xlink:href="#Helvetica-48"/>
     <use xlink:href="#Helvetica-69" transform="translate(72.216797 0)"/>
     <use xlink:href="#Helvetica-67" transform="translate(94.433594 0)"/>
     <use xlink:href="#Helvetica-68" transform="translate(150.048828 0)"/>
     <use xlink:href="#Helvetica-2d" transform="translate(205.664062 0)"/>
     <use xlink:href="#Helvetica-3b2" transform="translate(238.964844 0)"/>
    </g>
   </g>
   <g id="text_25">
    <!-- Underpriced -->
    <g style="fill: #2d7d6b" transform="translate(207.568861 114.306327) scale(0.085 -0.085)">
     <defs>
      <path id="Helvetica-55" d="M 1163 4591 
L 1163 1753 
Q 1163 1253 1350 922 
Q 1628 422 2288 422 
Q 3078 422 3363 963 
Q 3516 1256 3516 1753 
L 3516 4591 
L 4147 4591 
L 4147 2013 
Q 4147 1166 3919 709 
Q 3500 -122 2338 -122 
Q 1175 -122 759 709 
Q 531 1166 531 2013 
L 531 4591 
L 1163 4591 
z
M 2341 4591 
L 2341 4591 
z
" transform="scale(0.015625)"/>
     </defs>
     <use xlink:href="#Helvetica-55"/>
     <use xlink:href="#Helvetica-6e" transform="translate(72.216797 0)"/>
     <use xlink:href="#Helvetica-64" transform="translate(127.832031 0)"/>
     <use xlink:href="#Helvetica-65" transform="translate(183.447266 0)"/>
     <use xlink:href="#Helvetica-72" transform="translate(239.0625 0)"/>
     <use xlink:href="#Helvetica-70" transform="translate(272.363281 0)"/>
     <use xlink:href="#Helvetica-72" transform="translate(327.978516 0)"/>
     <use xlink:href="#Helvetica-69" transform="translate(361.279297 0)"/>
     <use xlink:href="#Helvetica-63" transform="translate(383.496094 0)"/>
     <use xlink:href="#Helvetica-65" transform="translate(433.496094 0)"/>
     <use xlink:href="#Helvetica-64" transform="translate(489.111328 0)"/>
    </g>
    <!-- (above SML) -->
    <g style="fill: #2d7d6b" transform="translate(207.568861 123.549545) scale(0.085 -0.085)">
     <defs>
      <path id="Helvetica-62" d="M 369 4606 
L 916 4606 
L 916 2941 
Q 1100 3181 1356 3307 
Q 1613 3434 1913 3434 
Q 2538 3434 2927 3004 
Q 3316 2575 3316 1738 
Q 3316 944 2931 419 
Q 2547 -106 1866 -106 
Q 1484 -106 1222 78 
Q 1066 188 888 428 
L 888 0 
L 369 0 
L 369 4606 
z
M 1831 391 
Q 2288 391 2514 753 
Q 2741 1116 2741 1709 
Q 2741 2238 2514 2584 
Q 2288 2931 1847 2931 
Q 1463 2931 1173 2647 
Q 884 2363 884 1709 
Q 884 1238 1003 944 
Q 1225 391 1831 391 
z
" transform="scale(0.015625)"/>
      <path id="Helvetica-76" d="M 688 3347 
L 1581 622 
L 2516 3347 
L 3131 3347 
L 1869 0 
L 1269 0 
L 34 3347 
L 688 3347 
z
" transform="scale(0.015625)"/>
      <path id="Helvetica-53" d="M 894 1481 
Q 916 1091 1078 847 
Q 1388 391 2169 391 
Q 2519 391 2806 491 
Q 3363 684 3363 1184 
Q 3363 1559 3128 1719 
Q 2891 1875 2384 1991 
L 1763 2131 
Q 1153 2269 900 2434 
Q 463 2722 463 3294 
Q 463 3913 891 4309 
Q 1319 4706 2103 4706 
Q 2825 4706 3329 4357 
Q 3834 4009 3834 3244 
L 3250 3244 
Q 3203 3613 3050 3809 
Q 2766 4169 2084 4169 
Q 1534 4169 1293 3937 
Q 1053 3706 1053 3400 
Q 1053 3063 1334 2906 
Q 1519 2806 2169 2656 
L 2813 2509 
Q 3278 2403 3531 2219 
Q 3969 1897 3969 1284 
Q 3969 522 3414 194 
Q 2859 -134 2125 -134 
Q 1269 -134 784 303 
Q 300 738 309 1481 
L 894 1481 
z
M 2150 4716 
L 2150 4716 
z
" transform="scale(0.015625)"/>
     </defs>
     <use xlink:href="#Helvetica-28"/>
     <use xlink:href="#Helvetica-61" transform="translate(33.300781 0)"/>
     <use xlink:href="#Helvetica-62" transform="translate(88.916016 0)"/>
     <use xlink:href="#Helvetica-6f" transform="translate(144.53125 0)"/>
     <use xlink:href="#Helvetica-76" transform="translate(200.146484 0)"/>
     <use xlink:href="#Helvetica-65" transform="translate(250.146484 0)"/>
     <use xlink:href="#Helvetica-20" transform="translate(305.761719 0)"/>
     <use xlink:href="#Helvetica-53" transform="translate(333.544922 0)"/>
     <use xlink:href="#Helvetica-4d" transform="translate(400.244141 0)"/>
     <use xlink:href="#Helvetica-4c" transform="translate(483.544922 0)"/>
     <use xlink:href="#Helvetica-29" transform="translate(539.160156 0)"/>
    </g>
   </g>
   <g id="text_26">
    <!-- Overpriced -->
    <g style="fill: #b35c2a" transform="translate(307.334977 131.194963) scale(0.085 -0.085)">
     <defs>
      <path id="Helvetica-4f" d="M 2469 4716 
Q 3684 4716 4269 3934 
Q 4725 3325 4725 2375 
Q 4725 1347 4203 666 
Q 3591 -134 2456 -134 
Q 1397 -134 791 566 
Q 250 1241 250 2272 
Q 250 3203 713 3866 
Q 1306 4716 2469 4716 
z
M 2531 422 
Q 3353 422 3720 1011 
Q 4088 1600 4088 2366 
Q 4088 3175 3664 3669 
Q 3241 4163 2506 4163 
Q 1794 4163 1344 3673 
Q 894 3184 894 2231 
Q 894 1469 1280 945 
Q 1666 422 2531 422 
z
M 2488 4716 
L 2488 4716 
z
" transform="scale(0.015625)"/>
     </defs>
     <use xlink:href="#Helvetica-4f"/>
     <use xlink:href="#Helvetica-76" transform="translate(77.783203 0)"/>
     <use xlink:href="#Helvetica-65" transform="translate(127.783203 0)"/>
     <use xlink:href="#Helvetica-72" transform="translate(183.398438 0)"/>
     <use xlink:href="#Helvetica-70" transform="translate(216.699219 0)"/>
     <use xlink:href="#Helvetica-72" transform="translate(272.314453 0)"/>
     <use xlink:href="#Helvetica-69" transform="translate(305.615234 0)"/>
     <use xlink:href="#Helvetica-63" transform="translate(327.832031 0)"/>
     <use xlink:href="#Helvetica-65" transform="translate(377.832031 0)"/>
     <use xlink:href="#Helvetica-64" transform="translate(433.447266 0)"/>
    </g>
    <!-- (below SML) -->
    <g style="fill: #b35c2a" transform="translate(307.334977 140.438182) scale(0.085 -0.085)">
     <defs>
      <path id="Helvetica-6c" d="M 428 4591 
L 991 4591 
L 991 0 
L 428 0 
L 428 4591 
z
" transform="scale(0.015625)"/>
     </defs>
     <use xlink:href="#Helvetica-28"/>
     <use xlink:href="#Helvetica-62" transform="translate(33.300781 0)"/>
     <use xlink:href="#Helvetica-65" transform="translate(88.916016 0)"/>
     <use xlink:href="#Helvetica-6c" transform="translate(144.53125 0)"/>
     <use xlink:href="#Helvetica-6f" transform="translate(166.748047 0)"/>
     <use xlink:href="#Helvetica-77" transform="translate(222.363281 0)"/>
     <use xlink:href="#Helvetica-20" transform="translate(294.580078 0)"/>
     <use xlink:href="#Helvetica-53" transform="translate(322.363281 0)"/>
     <use xlink:href="#Helvetica-4d" transform="translate(389.0625 0)"/>
     <use xlink:href="#Helvetica-4c" transform="translate(472.363281 0)"/>
     <use xlink:href="#Helvetica-29" transform="translate(527.978516 0)"/>
    </g>
   </g>
   <g id="line2d_21">
    <defs>
     <path id="ma309c610fc" d="M 0 3.5 
C 0.928211 3.5 1.81853 3.131218 2.474874 2.474874 
C 3.131218 1.81853 3.5 0.928211 3.5 0 
C 3.5 -0.928211 3.131218 -1.81853 2.474874 -2.474874 
C 1.81853 -3.131218 0.928211 -3.5 0 -3.5 
C -0.928211 -3.5 -1.81853 -3.131218 -2.474874 -2.474874 
C -3.131218 -1.81853 -3.5 -0.928211 -3.5 0 
C -3.5 0.928211 -3.131218 1.81853 -2.474874 2.474874 
C -1.81853 3.131218 -0.928211 3.5 0 3.5 
z
" style="stroke: #4a5360"/>
    </defs>
    <g clip-path="url(#p91a5be1afe)">
     <use xlink:href="#ma309c610fc" x="83.175059" y="192.968182" style="fill: #4a5360; stroke: #4a5360"/>
    </g>
   </g>
   <g id="line2d_22">
    <defs>
     <path id="m1beb94dc35" d="M 0 3.5 
C 0.928211 3.5 1.81853 3.131218 2.474874 2.474874 
C 3.131218 1.81853 3.5 0.928211 3.5 0 
C 3.5 -0.928211 3.131218 -1.81853 2.474874 -2.474874 
C 1.81853 -3.131218 0.928211 -3.5 0 -3.5 
C -0.928211 -3.5 -1.81853 -3.131218 -2.474874 -2.474874 
C -3.131218 -1.81853 -3.5 -0.928211 -3.5 0 
C -3.5 0.928211 -3.131218 1.81853 -2.474874 2.474874 
C -1.81853 3.131218 -0.928211 3.5 0 3.5 
z
" style="stroke: #b35c2a"/>
    </defs>
    <g clip-path="url(#p91a5be1afe)">
     <use xlink:href="#m1beb94dc35" x="249.451919" y="124.527273" style="fill: #b35c2a; stroke: #b35c2a"/>
    </g>
   </g>
   <g id="line2d_23">
    <defs>
     <path id="mbf94cde5b6" d="M 0 3.5 
C 0.928211 3.5 1.81853 3.131218 2.474874 2.474874 
C 3.131218 1.81853 3.5 0.928211 3.5 0 
C 3.5 -0.928211 3.131218 -1.81853 2.474874 -2.474874 
C 1.81853 -3.131218 0.928211 -3.5 0 -3.5 
C -0.928211 -3.5 -1.81853 -3.131218 -2.474874 -2.474874 
C -3.131218 -1.81853 -3.5 -0.928211 -3.5 0 
C -3.5 0.928211 -3.131218 1.81853 -2.474874 2.474874 
C -1.81853 3.131218 -0.928211 3.5 0 3.5 
z
" style="stroke: #2d7d6b"/>
    </defs>
    <g clip-path="url(#p91a5be1afe)">
     <use xlink:href="#mbf94cde5b6" x="149.685803" y="165.591818" style="fill: #2d7d6b; stroke: #2d7d6b"/>
    </g>
   </g>
   <g id="line2d_24">
    <defs>
     <path id="m0dbcb91126" d="M 0 3.5 
C 0.928211 3.5 1.81853 3.131218 2.474874 2.474874 
C 3.131218 1.81853 3.5 0.928211 3.5 0 
C 3.5 -0.928211 3.131218 -1.81853 2.474874 -2.474874 
C 1.81853 -3.131218 0.928211 -3.5 0 -3.5 
C -0.928211 -3.5 -1.81853 -3.131218 -2.474874 -2.474874 
C -3.131218 -1.81853 -3.5 -0.928211 -3.5 0 
C -3.5 0.928211 -3.131218 1.81853 -2.474874 2.474874 
C -1.81853 3.131218 -0.928211 3.5 0 3.5 
z
" style="stroke: #b07a1c"/>
    </defs>
    <g clip-path="url(#p91a5be1afe)">
     <use xlink:href="#m0dbcb91126" x="349.218035" y="83.462727" style="fill: #b07a1c; stroke: #b07a1c"/>
    </g>
   </g>
   <g id="PathCollection_1">
    <defs>
     <path id="mc9dde57a37" d="M 0 -3.162278 
L -3.162278 3.162278 
L 3.162278 3.162278 
z
" style="stroke: #2d7d6b"/>
    </defs>
    <g clip-path="url(#p91a5be1afe)">
     <use xlink:href="#mc9dde57a37" x="199.568861" y="123.549545" style="fill: #2d7d6b; stroke: #2d7d6b"/>
    </g>
   </g>
   <g id="PathCollection_2">
    <defs>
     <path id="m51eb26d480" d="M -0 3.162278 
L 3.162278 -3.162278 
L -3.162278 -3.162278 
z
" style="stroke: #b35c2a"/>
    </defs>
    <g clip-path="url(#p91a5be1afe)">
     <use xlink:href="#m51eb26d480" x="299.334977" y="128.438182" style="fill: #b35c2a; stroke: #b35c2a"/>
    </g>
   </g>
  </g>
 </g>
 <defs>
  <clipPath id="p91a5be1afe">
   <rect x="49.919688" y="7.2" width="365.809091" height="215.1"/>
  </clipPath>
 </defs>
</svg>
